<svg width="214" height="31" viewBox="0 0 214 31" fill="none" xmlns="http://www.w3.org/2000/svg">
<path d="M31.925 10.1357L33.7395 11.7727L34.3291 11.5961C33.6518 10.9095 32.8324 10.3822 31.9231 10.0703L31.925 10.1357ZM35.4605 16.9993L35.1 19.3232L35.5495 19.6978C36.0274 18.7479 36.2989 17.6613 36.3 16.5068L35.4605 16.9993ZM32.0375 20.5349L30.1355 19.0853L27.9605 19.9596L27.4249 22.3772L28.0958 22.9362C28.6965 23.1401 29.3363 23.25 30 23.25C30.5963 23.25 31.1732 23.1612 31.7198 22.9954L32.0375 20.5349ZM27.0395 22.2962L27.575 19.8786L25.5855 18.2415L24.0814 18.8182C24.5955 20.3248 25.5965 21.5801 26.8802 22.3656L27.0395 22.2962ZM25.6395 17.836L25.9125 15.0434L24.2444 13.7511C23.8945 14.5908 23.7 15.521 23.7 16.5C23.7 17.1894 23.7965 17.8547 23.9757 18.4811L25.6395 17.836ZM26.152 14.8665L28.327 13.8984L28.775 11.3871L27.4547 10.3236C26.1139 10.9588 25.0188 12.0805 24.3643 13.4797L26.152 14.8665ZM34.802 19.2025L35.1625 16.8786L33.0855 15.1478L30.823 16.0221L30.4625 18.8147L32.3645 20.2642L34.802 19.2025ZM32.9645 14.7962L33.325 12.0036L31.5105 10.3665L29.073 11.4283L28.625 13.9397L30.702 15.6705L32.9645 14.7962ZM30 9C33.866 9 37 12.3579 37 16.5C37 20.6421 33.866 24 30 24C26.134 24 23 20.6421 23 16.5C23 12.3579 26.134 9 30 9Z" fill="#D1D0C5"/>
<path d="M47.925 10.1357L49.7395 11.7727L50.3291 11.5961C49.6518 10.9095 48.8324 10.3822 47.9231 10.0703L47.925 10.1357ZM51.4605 16.9993L51.1 19.3232L51.5495 19.6978C52.0274 18.7479 52.2989 17.6613 52.3 16.5068L51.4605 16.9993ZM48.0375 20.5349L46.1355 19.0853L43.9605 19.9596L43.4249 22.3772L44.0958 22.9362C44.6965 23.1401 45.3363 23.25 46 23.25C46.5963 23.25 47.1732 23.1612 47.7198 22.9954L48.0375 20.5349ZM43.0395 22.2962L43.575 19.8786L41.5855 18.2415L40.0814 18.8182C40.5955 20.3248 41.5965 21.5801 42.8802 22.3656L43.0395 22.2962ZM41.6395 17.836L41.9125 15.0434L40.2444 13.7511C39.8945 14.5908 39.7 15.521 39.7 16.5C39.7 17.1894 39.7965 17.8547 39.9757 18.4811L41.6395 17.836ZM42.152 14.8665L44.327 13.8984L44.775 11.3871L43.4547 10.3236C42.1139 10.9588 41.0188 12.0805 40.3643 13.4797L42.152 14.8665ZM50.802 19.2025L51.1625 16.8786L49.0855 15.1478L46.823 16.0221L46.4625 18.8147L48.3645 20.2642L50.802 19.2025ZM48.9645 14.7962L49.325 12.0036L47.5105 10.3665L45.073 11.4283L44.625 13.9397L46.702 15.6705L48.9645 14.7962ZM46 9C49.866 9 53 12.3579 53 16.5C53 20.6421 49.866 24 46 24C42.134 24 39 20.6421 39 16.5C39 12.3579 42.134 9 46 9Z" fill="#D1D0C5"/>
<path d="M3.60938 24.2734C3.11719 24.2552 2.69792 24.082 2.35156 23.7539C2.00521 23.4076 1.82292 22.9883 1.80469 22.4961V15.6875C1.82292 14.3932 2.00521 13.1719 2.35156 12.0234C2.71615 10.875 3.30859 9.90885 4.12891 9.125C4.96745 8.32292 6.02474 7.88542 7.30078 7.8125H17.8555C18.3477 7.83073 18.7578 8.01302 19.0859 8.35938C19.4323 8.6875 19.6146 9.09766 19.6328 9.58984C19.6328 10.1003 19.4596 10.5378 19.1133 10.9023C18.7852 11.2669 18.3659 11.4583 17.8555 11.4766H8.23047C7.53776 11.513 6.96354 11.7773 6.50781 12.2695C6.05208 12.7617 5.76042 13.3268 5.63281 13.9648C5.52344 14.5846 5.47786 15.2682 5.49609 16.0156V22.4961C5.47786 23.0065 5.28646 23.4349 4.92188 23.7812C4.55729 24.1094 4.11979 24.2734 3.60938 24.2734ZM6.78125 17.082C6.78125 16.5716 6.96354 16.1432 7.32812 15.7969C7.67448 15.4323 8.10286 15.25 8.61328 15.25H17.8555C18.3659 15.25 18.7943 15.4323 19.1406 15.7969C19.5052 16.1432 19.6875 16.5716 19.6875 17.082C19.6875 17.5924 19.5143 18.0299 19.168 18.3945C18.8034 18.7409 18.3659 18.9141 17.8555 18.9141H8.61328C8.10286 18.9141 7.66536 18.7409 7.30078 18.3945C6.95443 18.0299 6.78125 17.5924 6.78125 17.082Z" fill="#D1D0C5"/>
<path d="M62.6562 7.375C63.1667 7.375 63.6042 7.54818 63.9688 7.89453C64.3333 8.22266 64.5247 8.64193 64.543 9.15234V11.5312H73.8398C74.3503 11.5312 74.7878 11.7044 75.1523 12.0508C75.4987 12.4154 75.6719 12.8529 75.6719 13.3633C75.6719 13.8737 75.4896 14.3112 75.125 14.6758C74.7786 15.0221 74.3503 15.1953 73.8398 15.1953H64.543V15.7422C64.5247 16.4896 64.5703 17.1823 64.6797 17.8203C64.8073 18.4401 65.099 18.9961 65.5547 19.4883C66.0104 19.9805 66.5846 20.2448 67.2773 20.2812H73.9492C74.4596 20.2995 74.8789 20.4909 75.207 20.8555C75.5534 21.2201 75.7266 21.6576 75.7266 22.168C75.7083 22.6602 75.526 23.0794 75.1797 23.4258C74.8516 23.7539 74.4414 23.9271 73.9492 23.9453H66.3477C65.0716 23.8724 64.0143 23.444 63.1758 22.6602C62.3555 21.8581 61.763 20.8828 61.3984 19.7344C61.0521 18.5859 60.8698 17.3646 60.8516 16.0703V15.1953H57.707C57.1966 15.1953 56.7682 15.013 56.4219 14.6484C56.0573 14.3021 55.875 13.8737 55.875 13.3633C55.875 12.8529 56.0482 12.4245 56.3945 12.0781C56.7591 11.7135 57.1966 11.5312 57.707 11.5312H60.8516V9.15234C60.8698 8.66016 61.0521 8.25 61.3984 7.92188C61.7448 7.57552 62.1641 7.39323 62.6562 7.375ZM80.1836 11.2031C80.694 11.2031 81.1315 11.3763 81.4961 11.7227C81.8607 12.0508 82.0521 12.4701 82.0703 12.9805V15.7422C82.0521 16.4896 82.0977 17.1823 82.207 17.8203C82.3346 18.4401 82.6263 18.9961 83.082 19.4883C83.5378 19.9805 84.112 20.2448 84.8047 20.2812H92.1055V13.0352C92.1055 12.5247 92.2878 12.1055 92.6523 11.7773C93.0352 11.431 93.4818 11.2578 93.9922 11.2578C95.0859 11.349 95.6875 11.9414 95.7969 13.0352V21.9492C95.7969 23.4076 95.5964 24.7839 95.1953 26.0781C94.8307 27.2266 94.2292 28.1927 93.3906 28.9766C92.5703 29.7786 91.5221 30.2161 90.2461 30.2891H80.7852C80.293 30.2708 79.8737 30.0885 79.5273 29.7422C79.1992 29.4141 79.026 29.0039 79.0078 28.5117C79.0078 28.0013 79.1719 27.5638 79.5 27.1992C79.8464 26.8346 80.2747 26.6432 80.7852 26.625H89.3164C90.0091 26.5885 90.5833 26.3242 91.0391 25.832C91.4948 25.3398 91.7865 24.7656 91.9141 24.1094C91.9323 24.0547 91.9414 24 91.9414 23.9453H83.875C82.599 23.8724 81.5417 23.444 80.7031 22.6602C79.8828 21.8581 79.2904 20.8828 78.9258 19.7344C78.5794 18.5859 78.3971 17.3646 78.3789 16.0703V12.9805C78.3971 12.4883 78.5794 12.0781 78.9258 11.75C79.2721 11.4036 79.6914 11.2214 80.1836 11.2031ZM98.8594 9.64453C98.8594 9.13411 99.0326 8.70573 99.3789 8.35938C99.7435 7.99479 100.181 7.8125 100.691 7.8125H116.605C117.116 7.8125 117.553 7.98568 117.918 8.33203C118.264 8.69661 118.438 9.13411 118.438 9.64453C118.438 10.1549 118.255 10.5924 117.891 10.957C117.544 11.3034 117.116 11.4766 116.605 11.4766H110.508V22.5508C110.398 23.6445 109.797 24.237 108.703 24.3281C108.193 24.3281 107.746 24.1641 107.363 23.8359C106.999 23.4896 106.816 23.0612 106.816 22.5508V11.4766H100.691C100.181 11.4766 99.7526 11.2943 99.4062 10.9297C99.0417 10.5833 98.8594 10.1549 98.8594 9.64453ZM136.594 22.4961V15.9062C136.594 15.4505 136.357 15.2135 135.883 15.1953H126.312C125.966 15.2135 125.665 15.3685 125.41 15.6602C125.155 15.9336 124.964 16.2617 124.836 16.6445C124.727 17.0091 124.672 17.3828 124.672 17.7656C124.672 18.1302 124.727 18.5039 124.836 18.8867C124.964 19.2513 125.155 19.5794 125.41 19.8711C125.665 20.1445 125.966 20.2812 126.312 20.2812H133.312C133.823 20.2812 134.251 20.4635 134.598 20.8281C134.962 21.1745 135.145 21.6029 135.145 22.1133C135.145 22.6237 134.962 23.0521 134.598 23.3984C134.251 23.763 133.823 23.9453 133.312 23.9453H126.422C125.146 23.9271 124.089 23.5716 123.25 22.8789C122.43 22.168 121.837 21.375 121.473 20.5C121.126 19.6068 120.953 18.6862 120.953 17.7383C120.953 16.8268 121.135 15.9336 121.5 15.0586C121.865 14.1654 122.457 13.3724 123.277 12.6797C124.098 11.9688 125.31 11.5859 126.914 11.5312H138.398C138.909 11.5312 139.346 11.7044 139.711 12.0508C140.076 12.3789 140.267 12.7982 140.285 13.3086V22.4961C140.285 23.0065 140.094 23.4349 139.711 23.7812C139.346 24.1094 138.909 24.2734 138.398 24.2734C137.305 24.1823 136.703 23.5898 136.594 22.4961ZM147.504 9.15234V19.5703C147.504 20.026 147.741 20.263 148.215 20.2812H157.785C158.132 20.263 158.432 20.1172 158.688 19.8438C158.943 19.5521 159.125 19.224 159.234 18.8594C159.362 18.4766 159.426 18.0938 159.426 17.7109C159.426 17.3464 159.362 16.9818 159.234 16.6172C159.125 16.2344 158.943 15.9062 158.688 15.6328C158.432 15.3411 158.132 15.1953 157.785 15.1953H150.785C150.275 15.1953 149.837 15.0221 149.473 14.6758C149.126 14.3112 148.953 13.8737 148.953 13.3633C148.953 12.8529 149.135 12.4245 149.5 12.0781C149.846 11.7135 150.275 11.5312 150.785 11.5312H157.676C158.952 11.5495 160 11.9141 160.82 12.625C161.659 13.3177 162.251 14.1107 162.598 15.0039C162.962 15.8789 163.145 16.7904 163.145 17.7383C163.145 18.6497 162.962 19.5521 162.598 20.4453C162.233 21.3203 161.641 22.1133 160.82 22.8242C160 23.5169 158.788 23.8906 157.184 23.9453H145.699C145.189 23.9453 144.751 23.7812 144.387 23.4531C144.022 23.1068 143.831 22.6784 143.812 22.168V9.15234C143.812 8.64193 143.995 8.22266 144.359 7.89453C144.742 7.54818 145.189 7.375 145.699 7.375C146.793 7.46615 147.395 8.05859 147.504 9.15234ZM167.984 7.375C168.477 7.39323 168.896 7.57552 169.242 7.92188C169.589 8.25 169.771 8.66016 169.789 9.15234V22.5508C169.68 23.6445 169.078 24.237 167.984 24.3281C167.474 24.3281 167.027 24.1641 166.645 23.8359C166.28 23.4896 166.098 23.0612 166.098 22.5508V9.15234C166.116 8.64193 166.307 8.22266 166.672 7.89453C167.036 7.54818 167.474 7.375 167.984 7.375ZM178.867 23.9453C177.263 23.8906 176.051 23.5169 175.23 22.8242C174.41 22.1133 173.818 21.3203 173.453 20.4453C173.089 19.5521 172.906 18.6497 172.906 17.7383C172.906 16.7904 173.079 15.8789 173.426 15.0039C173.79 14.1107 174.383 13.3177 175.203 12.625C176.042 11.9141 177.099 11.5495 178.375 11.5312H188.766C189.276 11.5312 189.704 11.7044 190.051 12.0508C190.415 12.3789 190.598 12.7799 190.598 13.2539C190.598 13.7461 190.415 14.1654 190.051 14.5117C189.704 14.8398 189.276 15.0039 188.766 15.0039H178.539C178.138 15.0039 177.783 15.1406 177.473 15.4141C177.181 15.6875 176.962 16.043 176.816 16.4805C176.689 16.918 176.625 17.3464 176.625 17.7656C176.625 18.2214 176.689 18.668 176.816 19.1055C176.962 19.543 177.181 19.8984 177.473 20.1719C177.783 20.4271 178.138 20.5638 178.539 20.582H188.766C189.276 20.582 189.704 20.7461 190.051 21.0742C190.415 21.4023 190.598 21.7943 190.598 22.25C190.598 22.724 190.415 23.125 190.051 23.4531C189.704 23.7812 189.276 23.9453 188.766 23.9453H178.867ZM190.27 17.6836C190.27 18.0299 190.115 18.3307 189.805 18.5859C189.531 18.8229 189.185 18.9414 188.766 18.9414H179.824C179.405 18.9414 179.049 18.8229 178.758 18.5859C178.466 18.3307 178.32 18.0299 178.32 17.6836C178.32 17.3555 178.466 17.0638 178.758 16.8086C179.049 16.5716 179.405 16.4531 179.824 16.4531H188.766C189.185 16.4531 189.54 16.5807 189.832 16.8359C190.124 17.0729 190.27 17.3555 190.27 17.6836Z" fill="#D1D0C5"/>
</svg>
