<svg width="14" height="14" viewBox="0 0 14 14" fill="none" xmlns="http://www.w3.org/2000/svg">
<path d="M7.00116 13.0007C10.3154 13.0007 13.0021 10.3144 13.0021 7.00073C13.0021 3.68702 10.3154 1.00073 7.00116 1.00073C3.68695 1.00073 1.00024 3.68702 1.00024 7.00073C1.00024 10.3144 3.68695 13.0007 7.00116 13.0007Z" fill="#FDFDFD"/>
<path fill-rule="evenodd" clip-rule="evenodd" d="M7.00106 0.000722667C7.18795 -0.00030794 7.3748 0.00636439 7.56114 0.0207227L7.70116 0.0307227L7.9512 0.0607227H7.9712L8.01121 0.0707227L8.23124 0.110723L8.36126 0.130723L8.50128 0.160723L8.6313 0.190723L8.87134 0.250723L8.95135 0.280723L9.18139 0.350723L9.22139 0.360723L9.75148 0.560723L9.78148 0.570723C10.7316 0.990723 11.5818 1.60072 12.2519 2.37072C12.4818 2.62569 12.6893 2.90004 12.872 3.19072L12.952 3.32072L13.012 3.42072C13.432 4.12072 13.7321 4.91072 13.8821 5.74072L13.9021 5.81072C14.0021 6.4221 14.0256 7.04354 13.9721 7.66072C13.8766 8.68491 13.5555 9.67526 13.032 10.5607L13.002 10.6107L12.922 10.7407L13.022 10.5607L12.8219 10.9007L12.7919 10.9407L12.4219 11.4407L12.3819 11.4707C12.2619 11.6307 12.1218 11.7707 11.9818 11.9207L11.9318 11.9707L11.8118 12.0907L11.4117 12.4407L11.3417 12.4907L11.1517 12.6407L11.1117 12.6607V12.6707L10.8616 12.8407L11.1117 12.6607C10.5965 13.0321 10.035 13.3346 9.44143 13.5607L9.39142 13.5807L9.17139 13.6607L9.11138 13.6807C8.98914 13.7181 8.86572 13.7514 8.74132 13.7807L8.5813 13.8207C7.55854 14.0589 6.49509 14.0624 5.47082 13.8307L5.41081 13.8207L5.26079 13.7807L5.17078 13.7607L5.14077 13.7507C5.06029 13.729 4.98027 13.7057 4.90073 13.6807L4.81072 13.6507L4.61069 13.5807L4.55068 13.5607C4.47013 13.5287 4.39011 13.4954 4.31064 13.4607H4.28064C3.78056 13.2407 3.32049 12.9807 2.90043 12.6707H2.89043L2.85042 12.6407L2.65039 12.4807L2.89043 12.6607C2.59858 12.4499 2.32431 12.2158 2.0703 11.9607L2.0203 11.9207C1.88003 11.777 1.74653 11.6268 1.62023 11.4707L1.58023 11.4307C0.699298 10.3566 0.159462 9.04377 0.0299912 7.66072C-0.00999707 7.21495 -0.00999707 6.76649 0.0299912 6.32072L0.0499942 6.19072L0.0599958 6.08072L0.100002 5.81072L0.120005 5.70072C0.280029 4.88072 0.570074 4.11072 0.990138 3.42072L1.05015 3.32072L1.13016 3.19072C1.87827 2.03321 2.95413 1.12461 4.22063 0.580723L4.26064 0.560723L4.77072 0.360723L4.83072 0.350723L5.06076 0.270723L5.12077 0.260723L5.37081 0.190723C5.42081 0.190723 5.46082 0.170723 5.50083 0.160723L5.64085 0.130723L5.77087 0.110723L6.0009 0.0707227H6.06091L6.30095 0.0307227H6.44097C6.62669 0.00712266 6.81388 -0.00290393 7.00106 0.000722667ZM8.88134 1.30072L7.44112 2.45072C7.32892 2.53997 7.19202 2.59262 7.04893 2.60157C6.90583 2.61051 6.76344 2.57531 6.641 2.50072L6.56099 2.45072L5.12077 1.30072C3.93282 1.69445 2.89772 2.44968 2.16032 3.46072L2.81042 5.18072C2.86144 5.31551 2.8696 5.46276 2.8338 5.60236C2.798 5.74196 2.71998 5.86711 2.61039 5.96072L2.54037 6.00072L1.00014 7.02072V7.22072C1.04419 8.40642 1.44119 9.55198 2.14031 10.5107L3.97059 10.4207C4.11442 10.4138 4.2569 10.4513 4.3786 10.5283C4.50031 10.6052 4.59532 10.7178 4.6507 10.8507L4.6807 10.9407L5.17078 12.7107C6.36055 13.096 7.64156 13.096 8.83134 12.7107L9.32141 10.9407C9.35996 10.8024 9.44014 10.6792 9.55107 10.588C9.662 10.4968 9.7983 10.4419 9.9415 10.4307H10.0315L11.8718 10.5107C12.6061 9.49512 13.0016 8.27393 13.002 7.02072L11.4617 6.01072C11.3404 5.93203 11.2463 5.81766 11.1926 5.68336C11.1389 5.54906 11.1281 5.40141 11.1617 5.26072L11.1917 5.18072L11.8418 3.46072C11.1039 2.45016 10.069 1.69505 8.88134 1.30072ZM7.40112 4.50072L9.2414 5.83072C9.48143 6.01072 9.59145 6.33072 9.49144 6.62072L8.79133 8.78072C8.74532 8.9197 8.65689 9.04075 8.53848 9.12685C8.42007 9.21296 8.27764 9.25978 8.13123 9.26072H5.86088C5.71447 9.25978 5.57204 9.21296 5.45363 9.12685C5.33522 9.04075 5.24679 8.9197 5.20078 8.78072L4.50067 6.62072C4.45515 6.48093 4.4548 6.33035 4.49968 6.19034C4.54456 6.05033 4.63239 5.92801 4.75071 5.84072L6.59099 4.50072C6.71033 4.4145 6.85382 4.36809 7.00106 4.36809C7.14829 4.36809 7.29178 4.4145 7.41112 4.50072H7.40112Z" fill="#DF2357"/>
</svg>
