<svg width="14" height="14" viewBox="0 0 14 14" fill="none" xmlns="http://www.w3.org/2000/svg">
<path d="M7 13.0007C10.3137 13.0007 13 10.3144 13 7.00073C13 3.68702 10.3137 1.00073 7 1.00073C3.68629 1.00073 1 3.68702 1 7.00073C1 10.3144 3.68629 13.0007 7 13.0007Z" fill="#FDFDFD"/>
<path fill-rule="evenodd" clip-rule="evenodd" d="M6.99999 0.000722667C7.18685 -0.00030794 7.37367 0.00636439 7.55999 0.0207227L7.69999 0.0307227L7.94999 0.0607227H7.96999L8.00999 0.0707227L8.22999 0.110723L8.35999 0.130723L8.49999 0.160723L8.62999 0.190723L8.86999 0.250723L8.94999 0.280723L9.17999 0.350723L9.21999 0.360723L9.74999 0.560723L9.77999 0.570723C10.73 0.990723 11.58 1.60072 12.25 2.37072C12.4799 2.62569 12.6873 2.90004 12.87 3.19072L12.95 3.32072L13.01 3.42072C13.43 4.12072 13.73 4.91072 13.88 5.74072L13.9 5.81072C13.9999 6.4221 14.0235 7.04354 13.97 7.66072C13.8745 8.68491 13.5535 9.67526 13.03 10.5607L13 10.6107L12.92 10.7407L13.02 10.5607L12.82 10.9007L12.79 10.9407L12.42 11.4407L12.38 11.4707C12.26 11.6307 12.12 11.7707 11.98 11.9207L11.93 11.9707L11.81 12.0907L11.41 12.4407L11.34 12.4907L11.15 12.6407L11.11 12.6607V12.6707L10.86 12.8407L11.11 12.6607C10.5948 13.0321 10.0334 13.3346 9.43999 13.5607L9.38999 13.5807L9.16999 13.6607L9.10999 13.6807C8.98777 13.7181 8.86437 13.7514 8.73999 13.7807L8.57999 13.8207C7.55738 14.0589 6.4941 14.0624 5.46999 13.8307L5.40999 13.8207L5.25999 13.7807L5.16999 13.7607L5.13999 13.7507C5.05952 13.729 4.97951 13.7057 4.89999 13.6807L4.80999 13.6507L4.60999 13.5807L4.54999 13.5607C4.46945 13.5287 4.38944 13.4954 4.30999 13.4607H4.27999C3.77999 13.2407 3.31999 12.9807 2.89999 12.6707H2.88999L2.84999 12.6407L2.64999 12.4807L2.88999 12.6607C2.59819 12.4499 2.32395 12.2158 2.06999 11.9607L2.01999 11.9207C1.87974 11.777 1.74626 11.6268 1.61999 11.4707L1.57999 11.4307C0.699191 10.3566 0.159438 9.04377 0.0299866 7.66072C-0.00999554 7.21495 -0.00999554 6.76649 0.0299866 6.32072L0.0499866 6.19072L0.0599866 6.08072L0.0999866 5.81072L0.119987 5.70072C0.279987 4.88072 0.569987 4.11072 0.989987 3.42072L1.04999 3.32072L1.12999 3.19072C1.87799 2.03321 2.95368 1.12461 4.21999 0.580723L4.25999 0.560723L4.76999 0.360723L4.82999 0.350723L5.05999 0.270723L5.11999 0.260723L5.36999 0.190723C5.41999 0.190723 5.45999 0.170723 5.49999 0.160723L5.63999 0.130723L5.76999 0.110723L5.99999 0.0707227H6.05999L6.29999 0.0307227H6.43999C6.62568 0.00712266 6.81284 -0.00290393 6.99999 0.000722667ZM8.87999 1.30072L7.43999 2.45072C7.3278 2.53997 7.19093 2.59262 7.04785 2.60157C6.90478 2.61051 6.76241 2.57531 6.63999 2.50072L6.55999 2.45072L5.11999 1.30072C3.93222 1.69445 2.89728 2.44968 2.15999 3.46072L2.80999 5.18072C2.861 5.31551 2.86916 5.46276 2.83337 5.60236C2.79757 5.74196 2.71956 5.86711 2.60999 5.96072L2.53999 6.00072L0.999987 7.02072V7.22072C1.04403 8.40642 1.44097 9.55198 2.13999 10.5107L3.96999 10.4207C4.11379 10.4138 4.25625 10.4513 4.37793 10.5283C4.49962 10.6052 4.59462 10.7178 4.64999 10.8507L4.67999 10.9407L5.16999 12.7107C6.35958 13.096 7.6404 13.096 8.82999 12.7107L9.31999 10.9407C9.35853 10.8024 9.4387 10.6792 9.54961 10.588C9.66052 10.4968 9.79681 10.4419 9.93999 10.4307H10.03L11.87 10.5107C12.6042 9.49512 12.9996 8.27393 13 7.02072L11.46 6.01072C11.3386 5.93203 11.2446 5.81766 11.1909 5.68336C11.1372 5.54906 11.1264 5.40141 11.16 5.26072L11.19 5.18072L11.84 3.46072C11.1022 2.45016 10.0674 1.69505 8.87999 1.30072ZM7.39999 4.50072L9.23999 5.83072C9.47999 6.01072 9.58999 6.33072 9.48999 6.62072L8.78999 8.78072C8.74398 8.9197 8.65556 9.04075 8.53717 9.12685C8.41878 9.21296 8.27637 9.25978 8.12999 9.26072H5.85999C5.7136 9.25978 5.57119 9.21296 5.4528 9.12685C5.33441 9.04075 5.24599 8.9197 5.19999 8.78072L4.49999 6.62072C4.45447 6.48093 4.45412 6.33035 4.49899 6.19034C4.54387 6.05033 4.63168 5.92801 4.74999 5.84072L6.58999 4.50072C6.70931 4.4145 6.85277 4.36809 6.99999 4.36809C7.1472 4.36809 7.29067 4.4145 7.40999 4.50072H7.39999Z" fill="#222222"/>
<path d="M10 6.00073C12.2091 6.00073 14 7.79159 14 10.0007C14 12.2099 12.2091 14.0007 10 14.0007C7.79086 14.0007 6 12.2099 6 10.0007C6 7.79159 7.79086 6.00073 10 6.00073Z" fill="#23DF8C"/>
<path fill-rule="evenodd" clip-rule="evenodd" d="M9.52003 12.3407C9.79003 12.3407 9.99003 12.2407 10.12 12.0407L12.32 8.87072C12.42 8.73072 12.46 8.57072 12.46 8.45072C12.4587 8.36056 12.4395 8.27155 12.4035 8.18888C12.3675 8.10621 12.3154 8.03153 12.2503 7.96918C12.1851 7.90683 12.1083 7.85806 12.0241 7.82571C11.9399 7.79335 11.8502 7.77806 11.76 7.78072C11.5 7.78072 11.32 7.88072 11.16 8.12072L9.52003 10.6507L8.73003 9.84072C8.66764 9.76997 8.5906 9.71364 8.50426 9.67565C8.41792 9.63766 8.32434 9.61891 8.23003 9.62072C7.83003 9.62072 7.53003 9.92072 7.53003 10.3007C7.53003 10.4707 7.58003 10.6007 7.73003 10.7707L8.96003 12.1007C9.02925 12.1803 9.11558 12.2433 9.21255 12.2848C9.30952 12.3264 9.41463 12.3455 9.52003 12.3407Z" fill="#111111"/>
</svg>
