<svg width="14" height="14" viewBox="0 0 14 14" fill="none" xmlns="http://www.w3.org/2000/svg">
<path d="M7 13.0066C10.3137 13.0066 13 10.3203 13 7.00659C13 3.69288 10.3137 1.00659 7 1.00659C3.68629 1.00659 1 3.69288 1 7.00659C1 10.3203 3.68629 13.0066 7 13.0066Z" fill="#FDFDFD"/>
<path fill-rule="evenodd" clip-rule="evenodd" d="M6.99999 0.00658204C7.18685 0.00555143 7.37367 0.0122238 7.55999 0.026582L7.69999 0.036582L7.94999 0.066582H7.96999L8.00999 0.076582L8.22999 0.116582L8.35999 0.136582L8.49999 0.166582L8.62999 0.196582L8.86999 0.256582L8.94999 0.286582L9.17999 0.356582L9.21999 0.366582L9.74999 0.566582L9.77999 0.576582C10.73 0.996582 11.58 1.60658 12.25 2.37658C12.4799 2.63155 12.6873 2.9059 12.87 3.19658L12.95 3.32658L13.01 3.42658C13.43 4.12658 13.73 4.91658 13.88 5.74658L13.9 5.81658C13.9999 6.42796 14.0235 7.0494 13.97 7.66658C13.8745 8.69077 13.5535 9.68112 13.03 10.5666L13 10.6166L12.92 10.7466L13.02 10.5666L12.82 10.9066L12.79 10.9466L12.42 11.4466L12.38 11.4766C12.26 11.6366 12.12 11.7766 11.98 11.9266L11.93 11.9766L11.81 12.0966L11.41 12.4466L11.34 12.4966L11.15 12.6466L11.11 12.6666V12.6766L10.86 12.8466L11.11 12.6666C10.5948 13.0379 10.0334 13.3405 9.43999 13.5666L9.38999 13.5866L9.16999 13.6666L9.10999 13.6866C8.98777 13.7239 8.86437 13.7573 8.73999 13.7866L8.57999 13.8266C7.55738 14.0648 6.4941 14.0682 5.46999 13.8366L5.40999 13.8266L5.25999 13.7866L5.16999 13.7666L5.13999 13.7566C5.05952 13.7349 4.97951 13.7115 4.89999 13.6866L4.80999 13.6566L4.60999 13.5866L4.54999 13.5666C4.46945 13.5346 4.38944 13.5012 4.30999 13.4666H4.27999C3.77999 13.2466 3.31999 12.9866 2.89999 12.6766H2.88999L2.84999 12.6466L2.64999 12.4866L2.88999 12.6666C2.59819 12.4558 2.32395 12.2217 2.06999 11.9666L2.01999 11.9266C1.87974 11.7829 1.74626 11.6327 1.61999 11.4766L1.57999 11.4366C0.699191 10.3624 0.159438 9.04963 0.0299866 7.66658C-0.00999554 7.22081 -0.00999554 6.77235 0.0299866 6.32658L0.0499866 6.19658L0.0599866 6.08658L0.0999866 5.81658L0.119987 5.70658C0.279987 4.88658 0.569987 4.11658 0.989987 3.42658L1.04999 3.32658L1.12999 3.19658C1.87799 2.03907 2.95368 1.13047 4.21999 0.586582L4.25999 0.566582L4.76999 0.366582L4.82999 0.356582L5.05999 0.276582L5.11999 0.266582L5.36999 0.196582C5.41999 0.196582 5.45999 0.176582 5.49999 0.166582L5.63999 0.136582L5.76999 0.116582L5.99999 0.076582H6.05999L6.29999 0.036582H6.43999C6.62568 0.012982 6.81284 0.00295544 6.99999 0.00658204ZM8.87999 1.30658L7.43999 2.45658C7.3278 2.54583 7.19093 2.59848 7.04785 2.60742C6.90478 2.61637 6.76241 2.58117 6.63999 2.50658L6.55999 2.45658L5.11999 1.30658C3.93222 1.70031 2.89728 2.45554 2.15999 3.46658L2.80999 5.18658C2.861 5.32137 2.86916 5.46862 2.83337 5.60822C2.79757 5.74782 2.71956 5.87297 2.60999 5.96658L2.53999 6.00658L0.999987 7.02658V7.22658C1.04403 8.41228 1.44097 9.55784 2.13999 10.5166L3.96999 10.4266C4.11379 10.4196 4.25625 10.4572 4.37793 10.5341C4.49962 10.6111 4.59462 10.7237 4.64999 10.8566L4.67999 10.9466L5.16999 12.7166C6.35958 13.1018 7.6404 13.1018 8.82999 12.7166L9.31999 10.9466C9.35853 10.8082 9.4387 10.6851 9.54961 10.5939C9.66052 10.5026 9.79681 10.4477 9.93999 10.4366H10.03L11.87 10.5166C12.6042 9.50098 12.9996 8.27979 13 7.02658L11.46 6.01658C11.3386 5.93789 11.2446 5.82352 11.1909 5.68922C11.1372 5.55492 11.1264 5.40727 11.16 5.26658L11.19 5.18658L11.84 3.46658C11.1022 2.45602 10.0674 1.70091 8.87999 1.30658ZM7.39999 4.50658L9.23999 5.83658C9.47999 6.01658 9.58999 6.33658 9.48999 6.62658L8.78999 8.78658C8.74398 8.92556 8.65556 9.04661 8.53717 9.13271C8.41878 9.21881 8.27637 9.26563 8.12999 9.26658H5.85999C5.7136 9.26563 5.57119 9.21881 5.4528 9.13271C5.33441 9.04661 5.24599 8.92556 5.19999 8.78658L4.49999 6.62658C4.45447 6.48679 4.45412 6.33621 4.49899 6.1962C4.54387 6.05619 4.63168 5.93387 4.74999 5.84658L6.58999 4.50658C6.70931 4.42036 6.85277 4.37394 6.99999 4.37394C7.1472 4.37394 7.29067 4.42036 7.40999 4.50658H7.39999Z" fill="#222222"/>
</svg>
