<svg width="14" height="14" viewBox="0 0 14 14" fill="none" xmlns="http://www.w3.org/2000/svg">
<path d="M7 13.0027C10.3137 13.0027 13 10.3164 13 7.00269C13 3.68898 10.3137 1.00269 7 1.00269C3.68629 1.00269 1 3.68898 1 7.00269C1 10.3164 3.68629 13.0027 7 13.0027Z" fill="#FDFDFD"/>
<path fill-rule="evenodd" clip-rule="evenodd" d="M6.99999 0.00267579C7.18685 0.00164518 7.37367 0.00831752 7.55999 0.0226758L7.69999 0.0326758L7.94999 0.0626758H7.96999L8.00999 0.0726758L8.22999 0.112676L8.35999 0.132676L8.49999 0.162676L8.62999 0.192676L8.86999 0.252676L8.94999 0.282676L9.17999 0.352676L9.21999 0.362676L9.74999 0.562676L9.77999 0.572676C10.73 0.992676 11.58 1.60268 12.25 2.37268C12.4799 2.62764 12.6873 2.902 12.87 3.19268L12.95 3.32268L13.01 3.42268C13.43 4.12268 13.73 4.91268 13.88 5.74268L13.9 5.81268C13.9999 6.42405 14.0235 7.04549 13.97 7.66268C13.8745 8.68686 13.5535 9.67721 13.03 10.5627L13 10.6127L12.92 10.7427L13.02 10.5627L12.82 10.9027L12.79 10.9427L12.42 11.4427L12.38 11.4727C12.26 11.6327 12.12 11.7727 11.98 11.9227L11.93 11.9727L11.81 12.0927L11.41 12.4427L11.34 12.4927L11.15 12.6427L11.11 12.6627V12.6727L10.86 12.8427L11.11 12.6627C10.5948 13.034 10.0334 13.3366 9.43999 13.5627L9.38999 13.5827L9.16999 13.6627L9.10999 13.6827C8.98777 13.72 8.86437 13.7534 8.73999 13.7827L8.57999 13.8227C7.55738 14.0609 6.4941 14.0643 5.46999 13.8327L5.40999 13.8227L5.25999 13.7827L5.16999 13.7627L5.13999 13.7527C5.05952 13.731 4.97951 13.7076 4.89999 13.6827L4.80999 13.6527L4.60999 13.5827L4.54999 13.5627C4.46945 13.5307 4.38944 13.4973 4.30999 13.4627H4.27999C3.77999 13.2427 3.31999 12.9827 2.89999 12.6727H2.88999L2.84999 12.6427L2.64999 12.4827L2.88999 12.6627C2.59819 12.4519 2.32395 12.2178 2.06999 11.9627L2.01999 11.9227C1.87974 11.779 1.74626 11.6288 1.61999 11.4727L1.57999 11.4327C0.699191 10.3585 0.159438 9.04572 0.0299866 7.66268C-0.00999554 7.2169 -0.00999554 6.76845 0.0299866 6.32268L0.0499866 6.19268L0.0599866 6.08268L0.0999866 5.81268L0.119987 5.70268C0.279987 4.88268 0.569987 4.11268 0.989987 3.42268L1.04999 3.32268L1.12999 3.19268C1.87799 2.03516 2.95368 1.12657 4.21999 0.582676L4.25999 0.562676L4.76999 0.362676L4.82999 0.352676L5.05999 0.272676L5.11999 0.262676L5.36999 0.192676C5.41999 0.192676 5.45999 0.172676 5.49999 0.162676L5.63999 0.132676L5.76999 0.112676L5.99999 0.0726758H6.05999L6.29999 0.0326758H6.43999C6.62568 0.00907579 6.81284 -0.000950805 6.99999 0.00267579ZM8.87999 1.30268L7.43999 2.45268C7.3278 2.54192 7.19093 2.59458 7.04785 2.60352C6.90478 2.61246 6.76241 2.57726 6.63999 2.50268L6.55999 2.45268L5.11999 1.30268C3.93222 1.6964 2.89728 2.45163 2.15999 3.46268L2.80999 5.18268C2.861 5.31746 2.86916 5.46471 2.83337 5.60431C2.79757 5.74391 2.71956 5.86907 2.60999 5.96268L2.53999 6.00268L0.999987 7.02268V7.22268C1.04403 8.40837 1.44097 9.55393 2.13999 10.5127L3.96999 10.4227C4.11379 10.4157 4.25625 10.4533 4.37793 10.5302C4.49962 10.6072 4.59462 10.7198 4.64999 10.8527L4.67999 10.9427L5.16999 12.7127C6.35958 13.0979 7.6404 13.0979 8.82999 12.7127L9.31999 10.9427C9.35853 10.8043 9.4387 10.6812 9.54961 10.59C9.66052 10.4987 9.79681 10.4438 9.93999 10.4327H10.03L11.87 10.5127C12.6042 9.49708 12.9996 8.27588 13 7.02268L11.46 6.01268C11.3386 5.93398 11.2446 5.81962 11.1909 5.68531C11.1372 5.55101 11.1264 5.40337 11.16 5.26268L11.19 5.18268L11.84 3.46268C11.1022 2.45211 10.0674 1.697 8.87999 1.30268ZM7.39999 4.50268L9.23999 5.83268C9.47999 6.01268 9.58999 6.33268 9.48999 6.62268L8.78999 8.78268C8.74398 8.92165 8.65556 9.0427 8.53717 9.12881C8.41878 9.21491 8.27637 9.26173 8.12999 9.26268H5.85999C5.7136 9.26173 5.57119 9.21491 5.4528 9.12881C5.33441 9.0427 5.24599 8.92165 5.19999 8.78268L4.49999 6.62268C4.45447 6.48288 4.45412 6.3323 4.49899 6.19229C4.54387 6.05229 4.63168 5.92997 4.74999 5.84268L6.58999 4.50268C6.70931 4.41645 6.85277 4.37004 6.99999 4.37004C7.1472 4.37004 7.29067 4.41645 7.40999 4.50268H7.39999Z" fill="#222222"/>
<path d="M10 6.00269C12.2091 6.00269 14 7.79355 14 10.0027C14 12.2118 12.2091 14.0027 10 14.0027C7.79086 14.0027 6 12.2118 6 10.0027C6 7.79355 7.79086 6.00269 10 6.00269Z" fill="#DF2357"/>
<path fill-rule="evenodd" clip-rule="evenodd" d="M11.8799 8.23269L11.9199 8.29269C12.0499 8.52269 12.0199 8.79269 11.8299 8.98269L10.8099 10.0027L11.8299 11.0327C12.0599 11.2527 12.0599 11.6127 11.8299 11.8327L11.7799 11.8827C11.6693 11.9696 11.5306 12.0125 11.3903 12.0033C11.25 11.994 11.1181 11.9333 11.0199 11.8327L9.99988 10.8127L8.97988 11.8327L8.91988 11.8827C8.80929 11.9648 8.6731 12.0048 8.53569 11.9956C8.39828 11.9865 8.26861 11.9287 8.16988 11.8327L8.11988 11.7727L8.07988 11.7127C8.01904 11.6049 7.99491 11.4803 8.01115 11.3576C8.02739 11.235 8.0831 11.1209 8.16988 11.0327L9.18988 10.0027L8.16988 8.98269C8.11637 8.92969 8.07389 8.86661 8.0449 8.7971C8.0159 8.72758 8.00098 8.65301 8.00098 8.57769C8.00098 8.50238 8.0159 8.4278 8.0449 8.35829C8.07389 8.28877 8.11637 8.22569 8.16988 8.17269L8.21988 8.12269C8.32969 8.03863 8.46631 7.99735 8.60429 8.00655C8.74228 8.01575 8.87221 8.0748 8.96988 8.17269L9.99988 9.19269L11.0299 8.17269L11.0799 8.12269L11.0999 8.10269C11.2104 8.0266 11.3441 7.99191 11.4776 8.00471C11.6112 8.01751 11.7359 8.077 11.8299 8.17269L11.8799 8.23269Z" fill="#111111"/>
</svg>
