<svg width="13" height="19" viewBox="0 0 13 19" fill="none" xmlns="http://www.w3.org/2000/svg">
<path d="M5.19954 2.60776H10.4C11.8362 2.60776 12.9999 3.77207 12.9999 5.20769V15.6085C12.9999 17.0447 11.8356 18.2085 10.4 18.2085H5.19954C3.76335 18.2085 2.59961 17.0442 2.59961 15.6085V5.20769C2.59961 3.7715 3.76392 2.60776 5.19954 2.60776Z" fill="#FFCE00"/>
<path d="M2.59993 0.0078125H7.80035C9.23654 0.0078125 10.4003 1.17212 10.4003 2.60774V13.0086C10.4003 14.4448 9.23597 15.6085 7.80035 15.6085H2.59993C1.16374 15.6085 0 14.4442 0 13.0086V2.60774C0 1.17155 1.16431 0.0078125 2.59993 0.0078125Z" fill="#DF2357"/>
</svg>
